<?xml version="1.0" standalone="no"?><svg xmlns="http://www.w3.org/2000/svg" viewBox="0 0 1440 320"><path fill="#0099ff" fill-opacity="1" d="M0,128L30,122.7C60,117,120,107,180,128C240,149,300,203,360,208C420,213,480,171,540,181.3C600,192,660,256,720,277.3C780,299,840,277,900,229.3C960,181,1020,107,1080,85.3C1140,64,1200,96,1260,106.7C1320,117,1380,107,1410,101.3L1440,96L1440,320L1410,320C1380,320,1320,320,1260,320C1200,320,1140,320,1080,320C1020,320,960,320,900,320C840,320,780,320,720,320C660,320,600,320,540,320C480,320,420,320,360,320C300,320,240,320,180,320C120,320,60,320,30,320L0,320Z"></path></svg>